<?xml version="1.0" encoding="utf-8"?>
<!-- Generator: Adobe Illustrator 26.2.1, SVG Export Plug-In . SVG Version: 6.00 Build 0)  -->
<svg version="1.1" id="Layer_1" xmlns="http://www.w3.org/2000/svg" xmlns:xlink="http://www.w3.org/1999/xlink" x="0px" y="0px"
	 viewBox="0 0 108 108" style="enable-background:new 0 0 108 108;" xml:space="preserve">
<style type="text/css">
	.st0{fill:#FFFFFF;}
	.st1{fill:url(#SVGID_1_);}
	.st2{fill:url(#SVGID_00000107556286301265450970000001051912161762012839_);}
</style>
<path class="st0" d="M106.5,66.6c7-29-10.9-58.1-39.9-65.1S8.5,12.4,1.5,41.4s10.9,58.1,39.9,65.1S99.5,95.6,106.5,66.6z"/>
<linearGradient id="SVGID_1_" gradientUnits="userSpaceOnUse" x1="54.0167" y1="75.3912" x2="54.0167" y2="167.8143" gradientTransform="matrix(1 0 0 1 0 -67.5746)">
	<stop  offset="0" style="stop-color:#8FCE3C"/>
	<stop  offset="1" style="stop-color:#64A322"/>
</linearGradient>
<path class="st1" d="M7.8,54C7.8,28.5,28.5,7.8,54,7.8s46.2,20.7,46.2,46.2c0,10.3-3.3,19.9-9.5,28.1L67.5,58.9
	c0.6-1.6,0.9-3.2,0.9-4.9c0-7.9-6.5-14.4-14.4-14.4S39.6,46.1,39.6,54c0,1.7,0.3,3.3,0.9,4.9L17.3,82C11.1,73.9,7.8,64.2,7.8,54z"/>
<linearGradient id="SVGID_00000039104442746559141520000009904807795635089839_" gradientUnits="userSpaceOnUse" x1="54.1167" y1="75.3771" x2="54.1167" y2="167.8002" gradientTransform="matrix(1 0 0 1 0 -67.5746)">
	<stop  offset="0" style="stop-color:#8FCE3C"/>
	<stop  offset="1" style="stop-color:#64A322"/>
</linearGradient>
<path style="fill:url(#SVGID_00000039104442746559141520000009904807795635089839_);" d="M45.5,64.9L54,51.7l8.5,13.2l23,23
	c-8.6,8-19.7,12.4-31.4,12.4s-22.9-4.4-31.4-12.4L45.5,64.9z"/>
</svg>
