<?xml version="1.0" standalone="no"?>
<!DOCTYPE svg PUBLIC "-//W3C//DTD SVG 20010904//EN"
 "http://www.w3.org/TR/2001/REC-SVG-20010904/DTD/svg10.dtd">
<svg version="1.0" xmlns="http://www.w3.org/2000/svg"
 width="343.000000pt" height="343.000000pt" viewBox="0 0 343.000000 343.000000"
 preserveAspectRatio="xMidYMid meet">
<metadata>
Created by potrace 1.14, written by Peter Selinger 2001-2017
</metadata>
<g transform="translate(0.000000,343.000000) scale(0.100000,-0.100000)"
fill="#000000" stroke="none">
<path d="M1859 3425 c-3 -2 -14 -6 -25 -8 -10 -2 -26 -7 -34 -10 -8 -3 -31 -8
-50 -11 -19 -3 -50 -18 -67 -34 -18 -15 -62 -38 -98 -52 -43 -16 -77 -37 -100
-62 -38 -40 -76 -55 -168 -62 -62 -5 -182 -59 -223 -100 -12 -12 -51 -66 -87
-121 -37 -55 -78 -113 -92 -130 -13 -16 -30 -46 -36 -65 -6 -19 -17 -42 -24
-50 -34 -39 -162 -350 -172 -415 -9 -64 -10 -138 -1 -170 4 -16 9 -46 12 -65
21 -167 79 -291 194 -415 29 -32 126 -160 157 -208 10 -16 47 -49 82 -73 34
-25 63 -48 63 -50 0 -2 -24 -15 -52 -28 -175 -78 -208 -97 -333 -190 -330
-248 -528 -609 -561 -1027 l-7 -79 1427 0 1426 0 -5 58 c-24 239 -82 427 -190
617 -72 125 -87 167 -65 180 19 12 11 90 -15 141 -34 68 -103 139 -143 147
-35 7 -44 35 -17 57 16 13 66 95 69 114 4 22 39 81 67 114 16 18 29 37 29 42
0 6 -17 18 -37 27 -21 10 -42 27 -48 38 -15 31 -47 58 -89 78 -37 17 -38 17
-56 -5 -11 -13 -19 -19 -20 -15 0 5 -13 -1 -29 -12 -16 -12 -50 -24 -75 -27
l-47 -7 11 27 c13 34 6 46 -25 46 -15 0 -26 7 -30 20 -3 11 -10 20 -16 20 -5
0 -8 10 -7 23 1 12 -2 32 -6 43 -9 30 17 54 62 55 20 0 46 2 57 4 11 3 46 -2
78 -10 36 -9 99 -15 160 -14 87 1 103 -1 116 -17 12 -14 30 -19 71 -20 30 0
81 -5 113 -11 53 -9 59 -9 69 10 13 24 -6 42 -62 57 -86 24 -79 46 9 30 68
-12 113 0 119 33 5 23 -58 50 -102 44 -36 -5 -80 8 -72 22 3 5 16 9 28 9 37 1
110 9 148 17 28 5 36 11 38 30 4 48 -60 67 -153 45 -72 -16 -95 -19 -99 -11
-6 9 49 34 114 52 53 15 99 55 100 86 0 33 -14 35 -77 12 -32 -12 -83 -26
-113 -31 -102 -16 -103 -16 -113 20 -8 26 -6 36 7 51 24 27 17 65 -13 69 -17
3 -36 -9 -70 -42 -59 -57 -156 -116 -193 -116 -35 0 -88 21 -131 52 -17 13
-47 28 -67 33 l-35 11 0 64 c-1 45 -8 80 -23 114 -12 27 -22 53 -22 58 0 5 12
35 26 66 14 31 30 89 36 127 5 40 17 81 28 97 11 15 29 52 41 83 11 30 26 61
33 68 8 7 21 28 31 47 28 54 4 187 -47 262 -10 14 -18 29 -18 33 0 30 -144
190 -186 205 -25 10 -366 14 -375 5z"/>
</g>
</svg>
